<?xml version="1.0" encoding="UTF-8"?>
<svg width="220px" height="35px" viewBox="0 0 220 35" version="1.1" xmlns="http://www.w3.org/2000/svg" xmlns:xlink="http://www.w3.org/1999/xlink">
    <defs>
        <polygon id="path-1" points="0 9.72222222e-05 219.897106 9.72222222e-05 219.897106 35.0000486 0 35.0000486"></polygon>
    </defs>
    <g id="Page-1" stroke="none" stroke-width="1" fill="none" fill-rule="evenodd">
        <g id="gradle-enterprise-primary-dark">
            <mask id="mask-2" fill="white">
                <use xlink:href="#path-1"></use>
            </mask>
            <g id="Clip-2"></g>
            <path d="M28.9206801,14.0541202 L26.876919,13.0289119 C26.8764323,13.0274535 26.8764323,13.0259952 26.8764323,13.0245369 C26.8764323,12.3167591 27.4507686,11.7426619 28.1594411,11.7426619 C28.8681137,11.7426619 29.44245,12.3167591 29.44245,13.0245369 C29.44245,13.4469674 29.236565,13.821273 28.9206801,14.0541202 L28.9206801,14.0541202 Z M39.8583792,1.95530076 C37.302096,-0.597754793 33.1873173,-0.651227015 30.5701934,1.79828687 C30.4441314,1.91592576 30.3716093,2.07974521 30.3686889,2.25231465 C30.3657686,2.42439799 30.4329367,2.59064799 30.5546181,2.71266187 L31.3966535,3.55314799 C31.6210341,3.77724521 31.9743969,3.80203687 32.2284677,3.61245354 C32.8680252,3.1336341 33.6623615,2.85023132 34.5228925,2.85023132 C36.6382022,2.85023132 38.3529367,4.56280076 38.3529367,6.67543965 C38.3529367,7.7317591 37.9241314,8.68842576 37.2310341,9.38064799 C31.9262111,14.678773 24.8424057,-0.169977015 8.77218451,7.46877299 C8.22218451,7.73030076 7.80652079,8.20912021 7.62545884,8.78953687 C7.4443969,9.36995354 7.51497212,9.99995354 7.81966238,10.5264119 L10.5769633,15.2859258 C11.1741757,16.3164813 12.4888217,16.6771758 13.5284677,16.0957869 L13.5975827,16.0573841 L13.5425827,16.0957869 L14.7652376,15.4128008 C14.7652376,15.4128008 16.8664323,14.1416202 18.6142642,12.5452313 C18.8600606,12.3216202 19.2328925,12.3089813 19.4923173,12.5180091 L19.4952376,12.5199535 L19.4996181,12.5238424 C19.6432022,12.6390508 19.7288659,12.8111341 19.7342199,12.9953702 C19.7400606,13.1796063 19.6646181,13.3565508 19.528335,13.4805091 C18.1582022,14.7278702 16.5291314,15.8692591 15.4447066,16.5289119 L15.4038217,16.5527313 L14.1811668,17.2357174 C13.6482022,17.5341897 13.0660783,17.675648 12.4907686,17.675648 C11.281742,17.675648 10.101919,17.0509952 9.45895442,15.9402313 L6.85107831,11.4475924 C1.84899867,14.9757869 -1.18768275,21.7764813 0.442848225,30.3782174 C0.499795127,30.6776619 0.761653534,30.8954397 1.06683053,30.8954397 L4.03293672,30.8954397 C4.35320221,30.8954397 4.6223615,30.6577313 4.66275973,30.3407869 C4.9353261,28.2038424 6.76249424,26.552523 8.97563584,26.552523 C11.1887774,26.552523 13.0159456,28.2038424 13.2889987,30.3407869 C13.3293969,30.6572452 13.5990429,30.8954397 13.9188217,30.8954397 L16.8104588,30.8954397 C17.1307243,30.8954397 17.3998836,30.6577313 17.4402819,30.3407869 C17.713335,28.2038424 19.5405031,26.552523 21.753158,26.552523 C23.9667863,26.552523 25.7939544,28.2038424 26.0665208,30.3407869 C26.106919,30.6572452 26.376565,30.8954397 26.6963438,30.8954397 L29.5514765,30.8954397 C29.8989987,30.8954397 30.1812996,30.6173841 30.1871403,30.2707869 C30.2538217,26.246273 31.3392199,21.6253008 34.4372288,19.3104397 C45.158335,11.2983563 42.3377597,4.43203687 39.8583792,1.95530076 L39.8583792,1.95530076 Z M218.898468,23.9853702 C218.898468,23.3665508 218.811831,22.8128702 218.637583,22.3214119 C218.463335,21.8309258 218.217538,21.4157869 217.900193,21.075023 C217.582848,20.7347452 217.205636,20.4741897 216.768069,20.2923841 C216.33099,20.1105785 215.849131,20.0196758 215.322981,20.0196758 C214.727229,20.0196758 214.193291,20.1130091 213.72068,20.2982174 C213.249043,20.4839119 212.840193,20.7503008 212.496078,21.0978702 C212.151477,21.4464119 211.875016,21.8630091 211.666211,22.3505785 C211.456919,22.8376619 211.317715,23.3821063 211.248114,23.9853702 L218.898468,23.9853702 Z M211.190193,24.6926619 L211.190193,24.9133563 C211.190193,25.7791202 211.290459,26.5408563 211.49245,27.1971063 C211.693468,27.8543285 211.979662,28.4050924 212.351034,28.849398 C212.722892,29.2941897 213.171167,29.628148 213.697804,29.8522452 C214.223954,30.0768285 214.812406,30.188148 215.462671,30.188148 C216.042848,30.188148 216.545636,30.1249535 216.971521,29.9975924 C217.397406,29.8692591 217.755636,29.7263424 218.045238,29.5683563 C218.335813,29.4098841 218.566034,29.2669674 218.736388,29.1391202 C218.906255,29.0117591 219.03037,28.9480785 219.10776,28.9480785 C219.208025,28.9480785 219.285901,28.9864813 219.339928,29.063773 L219.641698,29.4351619 C219.456255,29.6670369 219.209972,29.8833563 218.904795,30.0841202 C218.598645,30.2858563 218.257937,30.4569674 217.882671,30.5998841 C217.507406,30.7432869 217.10537,30.8570369 216.675592,30.9421063 C216.2463,31.0271758 215.814574,31.0699535 215.380901,31.0699535 C214.591919,31.0699535 213.872052,30.9328702 213.221786,30.6582174 C212.571521,30.3840508 212.01422,29.9839813 211.55037,29.4580091 C211.085547,28.932523 210.727804,28.289398 210.476167,27.5271758 C210.22453,26.7664119 210.098954,25.8948147 210.098954,24.9133563 C210.098954,24.0859952 210.216255,23.3223147 210.452804,22.6232869 C210.688866,21.9228008 211.029087,21.3205091 211.474441,20.8139813 C211.919308,20.3079397 212.465415,19.9117591 213.1113,19.6259258 C213.757185,19.3400924 214.491167,19.1966897 215.3113,19.1966897 C215.961565,19.1966897 216.565592,19.3089813 217.122406,19.5330785 C217.679707,19.7571758 218.163512,20.0833563 218.573822,20.5125924 C218.984131,20.9418285 219.306831,21.4692591 219.542892,22.0953702 C219.778954,22.7214813 219.897229,23.4404397 219.897229,24.2522452 C219.897229,24.421898 219.873866,24.5375924 219.828114,24.5998147 C219.781388,24.6615508 219.703512,24.6926619 219.595459,24.6926619 L211.190193,24.6926619 Z M207.277892,20.8086341 C207.216078,20.9165508 207.127494,20.9709952 207.01068,20.9709952 C206.925503,20.9709952 206.81745,20.9223841 206.686034,20.825648 C206.554131,20.7289119 206.378423,20.6214813 206.15745,20.5014119 C205.936963,20.3813424 205.66391,20.2729397 205.339264,20.1766897 C205.014131,20.0799535 204.619397,20.0313424 204.155061,20.0313424 C203.736963,20.0313424 203.35537,20.0916202 203.011742,20.2116897 C202.666654,20.3307869 202.373158,20.4916897 202.129308,20.6924535 C201.885459,20.8932174 201.697583,21.127523 201.566167,21.394398 C201.434751,21.6603008 201.369043,21.941273 201.369043,22.234398 C201.369043,22.5980091 201.462008,22.8989119 201.64745,23.1385647 C201.833379,23.3791897 202.074795,23.5838424 202.373158,23.7534952 C202.671034,23.9236341 203.013202,24.0699535 203.400636,24.1939119 C203.787096,24.3173841 204.18037,24.4413424 204.578512,24.5648147 C204.977627,24.688773 205.369928,24.8258563 205.757361,24.9770369 C206.143822,25.1277313 206.486477,25.3148841 206.784353,25.5389813 C207.082715,25.7635647 207.324618,26.0377313 207.510061,26.3624535 C207.69599,26.6866897 207.788954,27.0809258 207.788954,27.5451619 C207.788954,28.0473147 207.699397,28.5154397 207.521742,28.9480785 C207.3436,29.3807174 207.082715,29.7559952 206.738114,30.0724535 C206.393512,30.389398 205.969574,30.6407174 205.466786,30.8264119 C204.963999,31.0121063 204.386742,31.1039813 203.736963,31.1039813 C202.924618,31.1039813 202.223733,30.9751619 201.635769,30.7160647 C201.047317,30.4569674 200.521167,30.1191202 200.056831,29.7010647 L200.312361,29.3073147 C200.350813,29.2455785 200.395105,29.199398 200.446211,29.1682869 C200.496344,29.1371758 200.563512,29.1216202 200.648689,29.1216202 C200.749441,29.1216202 200.871123,29.1838424 201.014707,29.3073147 C201.157804,29.431273 201.349574,29.5639813 201.589043,29.706898 C201.829485,29.8507869 202.124928,29.9839813 202.477804,30.1074535 C202.82922,30.2309258 203.265326,30.2926619 203.783689,30.2926619 C204.270901,30.2926619 204.70068,30.2255785 205.072052,30.0894674 C205.443423,29.9553008 205.752981,29.7715508 206.000724,29.5387035 C206.248468,29.3073147 206.436344,29.0346063 206.563866,28.7220369 C206.691388,28.4084952 206.755636,28.0784258 206.755636,27.7303702 C206.755636,27.344398 206.662671,27.0230785 206.476742,26.7678702 C206.2913,26.513148 206.04745,26.2968285 205.74568,26.1184258 C205.443423,25.9409952 205.101255,25.7907869 204.717715,25.6668285 C204.334662,25.5433563 203.941875,25.419398 203.539353,25.2959258 C203.137317,25.1719674 202.74453,25.0368285 202.36099,24.8895369 C201.977937,24.7427313 201.635769,24.5570369 201.333512,24.3334258 C201.032229,24.1093285 200.788379,23.8366202 200.602937,23.5157869 C200.417008,23.1954397 200.323556,22.794398 200.323556,22.3155785 C200.323556,21.9057869 200.412627,21.5120369 200.590769,21.1333563 C200.76891,20.7541897 201.022494,20.4221758 201.351521,20.1358563 C201.680061,19.850023 202.080636,19.6215508 202.55276,19.451898 C203.024884,19.2822452 203.554928,19.1966897 204.143379,19.1966897 C204.847671,19.1966897 205.472627,19.2968285 206.018246,19.4980785 C206.563866,19.6988424 207.061786,20.0084952 207.510061,20.4255785 L207.277892,20.8086341 Z M195.889485,30.918773 L196.992406,30.918773 L196.992406,19.3823841 L195.889485,19.3823841 L195.889485,30.918773 Z M197.468423,15.405023 C197.468423,15.5440508 197.43922,15.6738424 197.3813,15.7934258 C197.323379,15.9134952 197.24745,16.0194674 197.154972,16.1123147 C197.062008,16.2051619 196.952981,16.2785647 196.829839,16.332523 C196.705724,16.3869674 196.574308,16.4137035 196.435105,16.4137035 C196.295901,16.4137035 196.163999,16.3869674 196.04037,16.332523 C195.916742,16.2785647 195.807715,16.2051619 195.715238,16.1123147 C195.622273,16.0194674 195.548777,15.9134952 195.494751,15.7934258 C195.440724,15.6738424 195.413468,15.5440508 195.413468,15.405023 C195.413468,15.2659952 195.440724,15.1328008 195.494751,15.0049535 C195.548777,14.8775924 195.622273,14.7677313 195.715238,14.674398 C195.807715,14.5820369 195.916742,14.5091202 196.04037,14.4541897 C196.163999,14.4002313 196.295901,14.3730091 196.435105,14.3730091 C196.574308,14.3730091 196.705724,14.4002313 196.829839,14.4541897 C196.952981,14.5091202 197.062008,14.5820369 197.154972,14.674398 C197.24745,14.7677313 197.323379,14.8775924 197.3813,15.0049535 C197.43922,15.1328008 197.468423,15.2659952 197.468423,15.405023 L197.468423,15.405023 Z M188.610016,22.1648841 C188.788645,21.6938424 188.991609,21.2743285 189.219884,20.9073147 C189.448158,20.5398147 189.711477,20.2287035 190.009839,19.9734952 C190.307715,19.7182869 190.640149,19.5228702 191.007627,19.3882174 C191.375592,19.2525924 191.783468,19.185023 192.232715,19.185023 C192.472185,19.185023 192.708733,19.2064119 192.940415,19.2487035 C193.173069,19.2909952 193.377981,19.3668285 193.556123,19.4747452 L193.463158,20.2403702 C193.42422,20.3638424 193.350724,20.4255785 193.242671,20.4255785 C193.149707,20.4255785 193.008556,20.3988424 192.818733,20.344398 C192.629397,20.2909258 192.37922,20.2627313 192.070149,20.2627313 C191.620901,20.2627313 191.224707,20.3307869 190.880105,20.4659258 C190.53599,20.6020369 190.225946,20.8042591 189.950946,21.075023 C189.676919,21.3453008 189.436477,21.6802313 189.231565,22.0778702 C189.026167,22.4759952 188.838777,22.934398 188.667937,23.4516202 L188.667937,30.918773 L187.554308,30.918773 L187.554308,19.3823841 L188.146167,19.3823841 C188.277583,19.3823841 188.370547,19.4096063 188.424574,19.4635647 C188.4786,19.5170369 188.513645,19.6103702 188.52922,19.7416202 L188.610016,22.1648841 Z M175.863158,28.403148 C176.088025,28.7351619 176.32214,29.015648 176.56599,29.2436341 C176.809839,29.4721063 177.066831,29.6573147 177.337937,29.8002313 C177.608556,29.943148 177.897185,30.0452313 178.202848,30.1074535 C178.508512,30.1696758 178.831211,30.2003008 179.171919,30.2003008 C179.852848,30.2003008 180.449087,30.0768285 180.960149,29.829398 C181.470724,29.5819674 181.898556,29.2319674 182.243158,28.7798841 C182.587273,28.3273147 182.846698,27.7867591 183.020459,27.1567591 C183.195193,26.5267591 183.281831,25.8325924 183.281831,25.0757174 C183.281831,23.3592591 182.964485,22.0978008 182.329795,21.2898841 C181.695592,20.4819674 180.785901,20.0780091 179.601698,20.0780091 C178.835592,20.0780091 178.142494,20.2753702 177.523379,20.6691202 C176.904264,21.0633563 176.351344,21.6121758 175.863158,22.3155785 L175.863158,28.403148 Z M175.817406,21.4575924 C176.327494,20.7619674 176.92568,20.2092591 177.610503,19.7994674 C178.295813,19.3901619 179.063866,19.185023 179.915149,19.185023 C181.331521,19.185023 182.436388,19.6759952 183.229751,20.6574535 C184.023114,21.639398 184.419308,23.1123147 184.419308,25.0757174 C184.419308,25.9176619 184.309308,26.7041897 184.088822,27.4348147 C183.868335,28.1649535 183.543202,28.7993285 183.113423,29.3359952 C182.684131,29.8736341 182.157981,30.2970369 181.534972,30.6062035 C180.911477,30.9158563 180.193556,31.0699535 179.380724,31.0699535 C178.599043,31.0699535 177.922008,30.9270369 177.349618,30.6407174 C176.776742,30.3548841 176.281255,29.9339119 175.863158,29.3768285 L175.863158,35.0001619 L174.749043,35.0001619 L174.749043,19.3823841 L175.364264,19.3823841 C175.557494,19.3823841 175.669928,19.4786341 175.700592,19.6721063 L175.817406,21.4575924 Z M167.597583,22.1648841 C167.775724,21.6938424 167.979176,21.2743285 168.20745,20.9073147 C168.435238,20.5398147 168.698556,20.2287035 168.996919,19.9734952 C169.294795,19.7182869 169.627715,19.5228702 169.995193,19.3882174 C170.363158,19.2525924 170.771034,19.185023 171.219795,19.185023 C171.459751,19.185023 171.695813,19.2064119 171.927981,19.2487035 C172.160149,19.2909952 172.365061,19.3668285 172.543689,19.4747452 L172.450724,20.2403702 C172.411786,20.3638424 172.338291,20.4255785 172.230238,20.4255785 C172.136786,20.4255785 171.996123,20.3988424 171.8063,20.344398 C171.616477,20.2909258 171.366786,20.2627313 171.057229,20.2627313 C170.608468,20.2627313 170.211786,20.3307869 169.867671,20.4659258 C169.523069,20.6020369 169.213512,20.8042591 168.938512,21.075023 C168.663999,21.3453008 168.423556,21.6802313 168.218645,22.0778702 C168.013246,22.4759952 167.825857,22.934398 167.655503,23.4516202 L167.655503,30.918773 L166.541388,30.918773 L166.541388,19.3823841 L167.133733,19.3823841 C167.264662,19.3823841 167.357627,19.4096063 167.41214,19.4635647 C167.46568,19.5170369 167.500724,19.6103702 167.5163,19.7416202 L167.597583,22.1648841 Z M162.535636,23.9853702 C162.535636,23.3665508 162.448999,22.8128702 162.274264,22.3214119 C162.100503,21.8309258 161.854707,21.4157869 161.536875,21.075023 C161.220016,20.7347452 160.842804,20.4741897 160.405238,20.2923841 C159.967671,20.1105785 159.485813,20.0196758 158.959662,20.0196758 C158.364397,20.0196758 157.829972,20.1130091 157.357848,20.2982174 C156.885724,20.4839119 156.477361,20.7503008 156.13276,21.0978702 C155.788645,21.4464119 155.512185,21.8630091 155.302892,22.3505785 C155.094087,22.8376619 154.954397,23.3821063 154.884795,23.9853702 L162.535636,23.9853702 Z M154.826875,24.6926619 L154.826875,24.9133563 C154.826875,25.7791202 154.927627,26.5408563 155.129131,27.1971063 C155.330149,27.8543285 155.616831,28.4050924 155.988202,28.849398 C156.359574,29.2941897 156.807848,29.628148 157.334972,29.8522452 C157.861123,30.0768285 158.449574,30.188148 159.099353,30.188148 C159.680016,30.188148 160.182804,30.1249535 160.608689,29.9975924 C161.034574,29.8692591 161.392317,29.7263424 161.682406,29.5683563 C161.972981,29.4098841 162.202715,29.2669674 162.373069,29.1391202 C162.543423,29.0117591 162.667538,28.9480785 162.744928,28.9480785 C162.845193,28.9480785 162.922583,28.9864813 162.976609,29.063773 L163.278866,29.4351619 C163.093423,29.6670369 162.84714,29.8833563 162.541477,30.0841202 C162.235813,30.2858563 161.895105,30.4569674 161.519839,30.5998841 C161.144574,30.7432869 160.742052,30.8570369 160.31276,30.9421063 C159.882981,31.0271758 159.451742,31.0699535 159.018069,31.0699535 C158.2286,31.0699535 157.508733,30.9328702 156.858468,30.6582174 C156.208689,30.3840508 155.651388,29.9839813 155.187052,29.4580091 C154.722715,28.932523 154.364485,28.289398 154.113335,27.5271758 C153.861211,26.7664119 153.735636,25.8948147 153.735636,24.9133563 C153.735636,24.0859952 153.853423,23.3223147 154.089972,22.6232869 C154.326034,21.9228008 154.666255,21.3205091 155.111123,20.8139813 C155.556477,20.3079397 156.102096,19.9117591 156.748468,19.6259258 C157.394353,19.3400924 158.127848,19.1966897 158.948468,19.1966897 C159.598246,19.1966897 160.20276,19.3089813 160.759574,19.5330785 C161.316388,19.7571758 161.800193,20.0833563 162.210503,20.5125924 C162.620813,20.9418285 162.943512,21.4692591 163.180061,22.0953702 C163.416123,22.7214813 163.534397,23.4404397 163.534397,24.2522452 C163.534397,24.421898 163.510547,24.5375924 163.464795,24.5998147 C163.418556,24.6615508 163.340193,24.6926619 163.23214,24.6926619 L154.826875,24.6926619 Z M149.67245,31.1039813 C148.890282,31.1039813 148.280901,30.888148 147.843822,30.455023 C147.406742,30.0223841 147.187715,29.3539813 147.187715,28.4493285 L147.187715,20.5650924 L145.527981,20.5650924 C145.442317,20.5650924 145.373202,20.5417591 145.318689,20.4955785 C145.264662,20.4489119 145.237892,20.3832869 145.237892,20.2982174 L145.237892,19.8689813 L147.211565,19.7299535 L147.489972,15.6023841 C147.505061,15.5328702 147.536698,15.4711341 147.582937,15.4171758 C147.629176,15.3622452 147.694884,15.3355091 147.780061,15.3355091 L148.302317,15.3355091 L148.302317,19.7416202 L151.947892,19.7416202 L151.947892,20.5650924 L148.302317,20.5650924 L148.302317,28.3914813 C148.302317,28.7084258 148.343202,28.980648 148.423999,29.2091202 C148.505769,29.4371063 148.617715,29.6242591 148.7613,29.7715508 C148.904397,29.9183563 149.072804,30.0257869 149.266034,30.096273 C149.459264,30.1657869 149.668556,30.2003008 149.892937,30.2003008 C150.171831,30.2003008 150.4113,30.1599535 150.612804,30.0782869 C150.813822,29.9975924 150.987583,29.9086341 151.135061,29.8114119 C151.282052,29.7151619 151.402273,29.6262035 151.495238,29.545023 C151.587715,29.4638424 151.661211,29.4230091 151.715724,29.4230091 C151.777538,29.4230091 151.839353,29.461898 151.901167,29.5387035 L152.203423,30.0257869 C151.909441,30.3505091 151.536123,30.6120369 151.082981,30.8089119 C150.630326,31.006273 150.160149,31.1039813 149.67245,31.1039813 L149.67245,31.1039813 Z M134.951432,21.3997452 C135.48537,20.7347452 136.102538,20.2014813 136.803423,19.7994674 C137.503335,19.3979397 138.283556,19.1966897 139.142627,19.1966897 C139.777317,19.1966897 140.336078,19.2968285 140.819884,19.4980785 C141.303689,19.6988424 141.704264,19.9890508 142.022096,20.3672452 C142.338954,20.7464119 142.57891,21.2023841 142.741477,21.7361341 C142.904043,22.2689119 142.985813,22.8721758 142.985813,23.5444674 L142.985813,30.918773 L141.871211,30.918773 L141.871211,23.5444674 C141.871211,22.4623841 141.623468,21.6146063 141.127981,20.9996758 C140.632494,20.3852313 139.878069,20.0780091 138.86422,20.0780091 C138.113202,20.0780091 137.410857,20.2695369 136.756698,20.6516202 C136.102538,21.0341897 135.520415,21.5655091 135.009353,22.2465508 L135.009353,30.918773 L133.895238,30.918773 L133.895238,19.3823841 L134.510459,19.3823841 C134.703689,19.3823841 134.816123,19.4786341 134.846786,19.6721063 L134.951432,21.3997452 Z M131.225061,29.9339119 L131.201698,30.918773 L121.356698,30.918773 L121.356698,14.5120369 L131.201698,14.5120369 L131.201698,15.4978702 L122.553069,15.4978702 L122.553069,22.1298841 L129.750769,22.1298841 L129.750769,23.0923841 L122.553069,23.0923841 L122.553069,29.9339119 L131.225061,29.9339119 Z M109.979972,23.6028008 C109.979972,23.231898 109.927892,22.881898 109.823246,22.5528008 C109.7186,22.2251619 109.561875,21.936898 109.352583,21.6894674 C109.143777,21.4420369 108.878999,21.2471063 108.55776,21.1037035 C108.236521,20.9607869 107.863202,20.8898147 107.437317,20.8898147 C106.60891,20.8898147 105.957185,21.1255785 105.481167,21.5966202 C105.005149,22.068148 104.700946,22.7365508 104.570016,23.6028008 L109.979972,23.6028008 Z M104.512096,25.3299535 C104.558335,25.9409952 104.666875,26.4684258 104.837229,26.9127313 C105.006609,27.357523 105.231477,27.7245369 105.509884,28.0147452 C105.789264,28.3039813 106.119751,28.521273 106.502804,28.6641897 C106.885857,28.8071063 107.309795,28.8785647 107.774131,28.8785647 C108.237981,28.8785647 108.639043,28.8241202 108.975857,28.7162035 C109.312671,28.6078008 109.606167,28.4877313 109.858291,28.3564813 C110.109441,28.2247452 110.329928,28.105648 110.519751,27.9972452 C110.709574,27.8888424 110.893556,27.8348841 111.071211,27.8348841 C111.31068,27.8348841 111.489308,27.9238424 111.605149,28.101273 L112.429662,29.1449535 C112.111831,29.5163424 111.756034,29.8269674 111.3613,30.0782869 C110.966565,30.3296063 110.554795,30.5308563 110.125016,30.6815508 C109.695724,30.8322452 109.258158,30.9382174 108.813291,31.0004397 C108.367937,31.0616897 107.936698,31.0928008 107.5186,31.0928008 C106.69068,31.0928008 105.920193,30.9557174 105.2086,30.6815508 C104.496034,30.4073841 103.876919,30.0009952 103.350769,29.4638424 C102.824618,28.9266897 102.410415,28.2621758 102.108645,27.4693285 C101.806875,26.6774535 101.655503,25.7591897 101.655503,24.7159952 C101.655503,23.9046758 101.787406,23.1405091 102.050724,22.4259258 C102.313556,21.7108563 102.690769,21.0891202 103.182848,20.5592591 C103.673468,20.0298841 104.2736,19.6103702 104.982273,19.3007174 C105.690459,18.9915508 106.489176,18.8374535 107.379397,18.8374535 C108.129928,18.8374535 108.823025,18.957523 109.457229,19.1966897 C110.092406,19.4363424 110.638025,19.7863424 111.094574,20.2457174 C111.551123,20.7065508 111.908866,21.2704397 112.168291,21.9388424 C112.427229,22.6077313 112.557185,23.3709258 112.557185,24.2289119 C112.557185,24.6615508 112.510459,24.9532174 112.417981,25.1039119 C112.325016,25.2550924 112.146875,25.3299535 111.884043,25.3299535 L104.512096,25.3299535 Z M96.5706801,30.918773 L99.4384677,30.918773 L99.4384677,13.6890508 L96.5706801,13.6890508 L96.5706801,30.918773 Z M90.8360783,22.0608563 C90.5109456,21.6666202 90.157096,21.3885647 89.7735562,21.2262035 C89.3905031,21.0633563 88.9787332,20.9821758 88.537273,20.9821758 C88.1040872,20.9821758 87.7132465,21.0633563 87.3647509,21.2262035 C87.0162553,21.3885647 86.7188659,21.6335647 86.4711226,21.9621758 C86.2228925,22.2903008 86.0335562,22.7083563 85.9021403,23.214398 C85.7702376,23.7209258 85.7045296,24.3173841 85.7045296,25.0052313 C85.7045296,25.7013424 85.7609898,26.2909952 85.87245,26.7737035 C85.9848836,27.256898 86.1459898,27.6516202 86.3543084,27.956898 C86.5636004,28.2621758 86.8191314,28.4823841 87.1209013,28.617523 C87.4226712,28.7526619 87.7594854,28.8207174 88.1308571,28.8207174 C88.727096,28.8207174 89.2337774,28.6967591 89.6518748,28.4493285 C90.0699721,28.201898 90.4642199,27.8504397 90.8360783,27.3939813 L90.8360783,22.0608563 Z M93.7038659,13.6890508 L93.7038659,30.918773 L91.9506801,30.918773 C91.5710341,30.918773 91.3310783,30.7452313 91.2308128,30.3971758 L90.9869633,29.2494674 C90.5070518,29.798773 89.9551049,30.2425924 89.3325827,30.5828702 C88.7095739,30.9226619 87.9838659,31.0928008 87.1554588,31.0928008 C86.5056801,31.0928008 85.9099279,30.9576619 85.3677155,30.6873841 C84.8259898,30.4166202 84.3597066,30.0248147 83.9688659,29.5105091 C83.5780252,28.9962035 83.2762553,28.3608563 83.0635562,27.6030091 C82.8503703,26.845648 82.7442642,25.9798841 82.7442642,25.0052313 C82.7442642,24.1248841 82.8639987,23.3053008 83.1044411,22.5474535 C83.3439102,21.7900924 83.6885119,21.1333563 84.137273,20.576273 C84.5860341,20.0196758 85.1238659,19.5850924 85.7507686,19.2720369 C86.378158,18.9589813 87.08245,18.8024535 87.8641314,18.8024535 C88.5294854,18.8024535 89.0984677,18.9064813 89.5705916,19.1155091 C90.0427155,19.3245369 90.4642199,19.6064813 90.8360783,19.9618285 L90.8360783,13.6890508 L93.7038659,13.6890508 Z M77.8682465,25.8403702 C77.0398394,25.8792591 76.343335,25.9507174 75.7787332,26.0547452 C75.2136447,26.1592591 74.7605031,26.2924535 74.4202819,26.4548147 C74.0795739,26.6171758 73.8357243,26.8067591 73.6892199,27.0230785 C73.541742,27.2398841 73.4682465,27.475648 73.4682465,27.7303702 C73.4682465,28.2330091 73.6176712,28.5922452 73.9150606,28.8085647 C74.2129367,29.0253702 74.6023173,29.133773 75.0822288,29.133773 C75.6697066,29.133773 76.1793084,29.0273147 76.6090872,28.8148841 C77.0383792,28.6019674 77.4579367,28.2796758 77.8682465,27.8460647 L77.8682465,25.8403702 Z M71.2969633,20.6807869 C72.667096,19.4285647 74.3161226,18.8024535 76.2430695,18.8024535 C76.9395739,18.8024535 77.5625827,18.9166897 78.112096,19.1446758 C78.6616093,19.3726619 79.1259456,19.6896063 79.5055916,20.095023 C79.8842642,20.5014119 80.1728925,20.9865508 80.3705031,21.5509258 C80.567627,22.1148147 80.6659456,22.733148 80.6659456,23.4054397 L80.6659456,30.918773 L79.3659013,30.918773 C79.0952819,30.918773 78.8859898,30.8779397 78.7389987,30.7972452 C78.5920075,30.7160647 78.4756801,30.5517591 78.3909898,30.3043285 L78.1354588,29.4463424 C77.8336889,29.7171063 77.5392199,29.9553008 77.2530252,30.1599535 C76.9668305,30.3646063 76.6684677,30.5362035 76.3589102,30.6752313 C76.0493526,30.8147452 75.7183792,30.9202313 75.3664765,30.9946063 C75.0140872,31.0680091 74.6251934,31.1039813 74.1997951,31.1039813 C73.6970075,31.1039813 73.2321845,31.0373841 72.8062996,30.9017591 C72.3809013,30.7666202 72.0134234,30.5639119 71.7038659,30.2926619 C71.3938217,30.0223841 71.1543526,29.6864813 70.9835119,29.2839813 C70.813158,28.8819674 70.7284677,28.4143285 70.7284677,27.8810647 C70.7284677,27.5791897 70.7790872,27.2802313 70.8793526,26.9827313 C70.9801049,26.6847452 71.1446181,26.4008563 71.3728925,26.1300924 C71.6006801,25.8598147 71.897096,25.6046063 72.2606801,25.3654397 C72.6247509,25.1253008 73.071565,24.9167591 73.6016093,24.7388424 C74.1321403,24.5614119 74.7493084,24.4160647 75.4536004,24.3042591 C76.1578925,24.1919674 76.9629367,24.1248841 77.8682465,24.1010647 L77.8682465,23.4054397 C77.8682465,22.6096758 77.6978925,22.020023 77.3576712,21.6374535 C77.0169633,21.2548841 76.5253703,21.0633563 75.8828925,21.0633563 C75.4185562,21.0633563 75.0335562,21.1173147 74.7278925,21.2262035 C74.4222288,21.3341202 74.1535562,21.455648 73.9209013,21.5907869 C73.6892199,21.7264119 73.477981,21.8479397 73.2886447,21.9563424 C73.098335,22.0647452 72.8880695,22.1187035 72.6559013,22.1187035 C72.4539102,22.1187035 72.2845296,22.0662035 72.1448394,21.9621758 C72.0061226,21.8576619 71.8936889,21.7361341 71.8085119,21.5966202 L71.2969633,20.6807869 Z M65.7711668,21.0866897 C66.1430252,20.3755091 66.5839987,19.8164813 67.0950606,19.4115508 C67.6051491,19.005648 68.2096624,18.8024535 68.9061668,18.8024535 C69.4551934,18.8024535 69.8961668,18.922523 70.2290872,19.1621758 L70.0436447,21.306898 C70.0051934,21.4464119 69.9482465,21.5441202 69.8757243,21.6024535 C69.801742,21.6603008 69.7029367,21.6894674 69.5793084,21.6894674 C69.462981,21.6894674 69.2906801,21.670023 69.0628925,21.6316202 C68.8346181,21.5932174 68.6116978,21.573773 68.3951049,21.573773 C68.0777597,21.573773 67.7949721,21.6199535 67.5472288,21.7128008 C67.2999721,21.8051619 67.0770518,21.9388424 66.8799279,22.1128702 C66.6823173,22.286898 66.5085562,22.4973841 66.3576712,22.7448147 C66.2062996,22.9922452 66.0656358,23.2746758 65.9337332,23.5911341 L65.9337332,30.918773 L63.0659456,30.918773 L63.0659456,19.0226619 L64.7495296,19.0226619 C65.0439987,19.0226619 65.2489102,19.0746758 65.3647509,19.1791897 C65.4810783,19.2837035 65.5584677,19.4713424 65.5974057,19.7416202 L65.7711668,21.0866897 Z M60.6746624,22.5129397 L60.6746624,29.295648 C59.8233792,29.9217591 58.9161226,30.3801619 57.9524057,30.6698841 C56.9886889,30.9596063 55.9573173,31.1039813 54.8582907,31.1039813 C53.488158,31.1039813 52.2484677,30.8920369 51.137273,30.4671758 C50.0270518,30.0418285 49.0784234,29.4507174 48.293335,28.6923841 C47.5077597,27.9355091 46.902273,27.0308563 46.476388,25.9798841 C46.0505031,24.9284258 45.837804,23.7807174 45.837804,22.5357869 C45.837804,21.2757869 46.0432022,20.1203008 46.4530252,19.0688424 C46.863335,18.0178702 47.4454588,17.1137035 48.1998836,16.3553702 C48.9552819,15.5984952 49.8703261,15.0107869 50.9459898,14.5932174 C52.0216535,14.1761341 53.2292199,13.9675924 54.5682022,13.9675924 C55.2491314,13.9675924 55.8857686,14.0215508 56.477627,14.1299535 C57.0699721,14.2378702 57.6194854,14.3871063 58.1261668,14.5762035 C58.633335,14.7657869 59.0957243,14.9957174 59.5138217,15.2659952 C59.931919,15.5372452 60.3149721,15.8342591 60.6634677,16.1589813 L59.7693526,17.5730785 C59.6296624,17.7976619 59.4481137,17.9347452 59.2237332,17.9853008 C58.9988659,18.0348841 58.7550164,17.9794674 58.4921845,17.8171063 C58.2366535,17.6698147 57.9811226,17.5234952 57.7260783,17.3762035 C57.4705473,17.229398 57.1862996,17.102523 56.8728482,16.9936341 C56.5593969,16.8852313 56.2070075,16.7967591 55.8161668,16.7267591 C55.4253261,16.6572452 54.9746181,16.6222452 54.4640429,16.6222452 C53.6356358,16.6222452 52.8870518,16.7617591 52.2173173,17.0403008 C51.5475827,17.3183563 50.9766535,17.7159952 50.5050164,18.2341897 C50.0328925,18.7523841 49.6688217,19.3741202 49.4137774,20.1003702 C49.1577597,20.8280785 49.0302376,21.639398 49.0302376,22.5357869 C49.0302376,23.4948841 49.167981,24.3509258 49.442981,25.1039119 C49.7170075,25.8578702 50.1039544,26.495648 50.603335,27.0172452 C51.1027155,27.5393285 51.7043084,27.9379397 52.4086004,28.2116202 C53.1133792,28.4857869 53.8984677,28.6233563 54.7653261,28.6233563 C55.3849279,28.6233563 55.9378482,28.5577313 56.4255473,28.4259952 C56.9132465,28.2952313 57.3892642,28.1173147 57.8536004,27.8927313 L57.8536004,24.855023 L55.7407243,24.855023 C55.5392199,24.855023 55.3824942,24.7991202 55.2705473,24.6868285 C55.1581137,24.575023 55.102627,24.4374535 55.102627,24.2750924 L55.102627,22.5129397 L60.6746624,22.5129397 Z" id="Fill-1" fill="#02303A" mask="url(#mask-2)"></path>
        </g>
    </g>
</svg>